<?xml version="1.0" encoding="UTF-8"?>
<!-- Generator: Adobe Illustrator 27.6.1, SVG Export Plug-In . SVG Version: 6.00 Build 0)  -->
<svg xmlns="http://www.w3.org/2000/svg" xmlns:xlink="http://www.w3.org/1999/xlink" version="1.1" id="Warstwa_1" x="0px" y="0px" viewBox="0 0 2379.1 1673" style="enable-background:new 0 0 2379.1 1673;" xml:space="preserve">
<style type="text/css">
	.st0{clip-path:url(#SVGID_00000008127737404056385300000016550769650731035792_);}
</style>
<g>
	<defs>
		<rect id="SVGID_1_" width="2378.2" height="1672.5"></rect>
	</defs>
	<clipPath id="SVGID_00000152984996743668608340000006761531212113256374_">
		<use xlink:href="#SVGID_1_" style="overflow:visible;"></use>
	</clipPath>
	<path style="clip-path:url(#SVGID_00000152984996743668608340000006761531212113256374_);" d="M836.2,597.4   c-5.8,10.2-10.1,19.5-13.2,27.2c-2.8-8.2-7-18.1-13.1-29.1c-7.8-13.9-20.4-23.6-29.9-29.4c10.6-5.5,25.1-15.6,34.1-32.7   c4.8-9.1,8.4-17.4,11.1-24.5c2.4,7.5,5.7,16.4,10.3,25.9c8,16.6,21.6,26.3,31.6,31.6C857.5,572.7,844.3,583.3,836.2,597.4z    M883.1,559.2c-0.3-0.1-25.1-7.2-36.1-30c-12.7-26.3-14.7-46.9-14.7-47.1c-0.3-3.3-3-5.8-6.3-5.9c-3.4-0.1-6.1,2.3-6.5,5.6   c0,0.2-2.8,19.2-16.8,45.5c-12.7,23.8-39.3,31.8-39.6,31.9c-2.6,0.8-4.5,3.1-4.6,5.8c-0.2,2.7,1.4,5.3,4,6.3   c0.3,0.1,25,10.5,36.2,30.4c15,26.7,17.2,46.8,17.2,47c0.3,3.1,2.9,5.6,6.1,5.8c0.1,0,0.2,0,0.3,0c3,0,5.7-2.2,6.3-5.2   c0-0.2,4.2-20.1,18.8-45.5c11.6-20.1,36.6-32.6,36.9-32.7c2.4-1.2,3.8-3.7,3.6-6.4C887.6,562.1,885.7,559.9,883.1,559.2z    M1588.2,222.1c-2.1,3.7-3.9,7.2-5.4,10.4c-1.5-3.5-3.3-7.4-5.6-11.5c-3.9-7-9.8-12.3-15-16c6-3.7,12.9-9.5,17.5-18.2   c1.5-2.9,2.9-5.7,4-8.3c1.1,2.8,2.4,5.9,3.9,9.1c4.1,8.5,10.6,14.2,16.2,17.7C1598.6,209.2,1592.4,214.9,1588.2,222.1z M1619,198.2   c-0.1,0-13.8-4.1-19.7-16.4c-7.3-15.1-8.5-26.8-8.5-27c-0.3-3.2-3-5.8-6.3-5.8c-3.2-0.1-6.1,2.3-6.5,5.5c0,0.1-1.6,11-9.7,26.1   c-6.9,13.1-21.7,17.5-21.8,17.6c-2.6,0.8-4.5,3.1-4.6,5.9c-0.1,2.7,1.4,5.3,4,6.3c0.1,0.1,14,5.9,20.1,16.8   c8.5,15.3,9.8,26.7,9.8,26.8c0.3,3.2,2.9,5.6,6.1,5.8c0.1,0,0.2,0,0.3,0c3,0,5.7-2.1,6.3-5.1c0-0.1,2.4-11.5,10.8-26.2   c6.4-11.1,20.6-18.2,20.7-18.3c2.4-1.2,3.8-3.7,3.6-6.4C1623.5,201.2,1621.6,198.9,1619,198.2z M1491.8,774.5   c-0.9,1.6-1.8,3.2-2.5,4.7c-0.8-1.7-1.8-3.6-2.8-5.5c-2.6-4.6-6.2-8.3-9.8-11c4.1-2.9,8.6-7.1,11.7-12.9c0.5-1,1-1.9,1.5-2.8   c0.5,1.1,1,2.2,1.5,3.4c2.8,5.7,6.9,9.8,10.8,12.6C1498.5,765.9,1494.6,769.8,1491.8,774.5z M1516.6,756c-0.1,0-9.6-2.9-13.7-11.3   c-5.3-11-6.2-19.4-6.2-19.6c-0.3-3.2-3-5.7-6.3-5.8c-3.4,0.1-6.1,2.3-6.5,5.5c0,0.1-1.2,8-7,18.9c-4.8,9.1-15.2,12.2-15.2,12.3   c-2.6,0.8-4.5,3.1-4.7,5.8c-0.2,2.7,1.4,5.3,4,6.3c0.1,0.1,9.9,4.2,14.2,11.8c6.2,11,7.1,19.2,7.1,19.3c0.3,3.2,2.9,5.6,6.1,5.8   c0.1,0,0.2,0,0.3,0c3,0,5.7-2.1,6.3-5.2c0-0.1,1.8-8.3,7.9-19c4.5-7.9,14.6-12.9,14.7-13c2.4-1.2,3.8-3.7,3.6-6.4   C1521,759,1519.2,756.7,1516.6,756z M1088.5,77.2c5.7,0,10.3,4.6,10.3,10.3c0,5.7-4.6,10.3-10.3,10.3c-5.7,0-10.3-4.6-10.3-10.3   C1078.1,81.8,1082.8,77.2,1088.5,77.2z M1088.5,110.8c12.8,0,23.2-10.4,23.2-23.2c0-12.8-10.4-23.2-23.2-23.2s-23.2,10.4-23.2,23.2   C1065.2,100.3,1075.7,110.8,1088.5,110.8z M1330.1,957c-5.7,0-10.3-4.6-10.3-10.3c0-5.7,4.6-10.4,10.3-10.4   c5.7,0,10.3,4.6,10.3,10.4C1340.4,952.3,1335.8,957,1330.1,957z M1330.1,923.4c-12.8,0-23.2,10.4-23.2,23.3   c0,12.8,10.4,23.2,23.2,23.2c12.8,0,23.2-10.4,23.2-23.2C1353.3,933.8,1342.9,923.4,1330.1,923.4z M911.3,745   c-5.7,0-10.3-4.6-10.3-10.4c0-5.7,4.6-10.3,10.3-10.3c5.7,0,10.3,4.6,10.3,10.3C921.6,740.3,917,745,911.3,745z M911.3,711.4   c-12.8,0-23.2,10.4-23.2,23.2c0,12.8,10.4,23.3,23.2,23.3s23.2-10.4,23.2-23.3C934.5,721.8,924.1,711.4,911.3,711.4z M1463.5,439.7   c-5.7,0-10.3-4.6-10.3-10.3c0-5.7,4.6-10.3,10.3-10.3c5.7,0,10.3,4.6,10.3,10.3C1473.9,435.1,1469.2,439.7,1463.5,439.7z    M1463.5,406.1c-12.8,0-23.2,10.4-23.2,23.2c0,12.8,10.4,23.2,23.2,23.2c12.8,0,23.2-10.4,23.2-23.2   C1486.8,416.5,1476.3,406.1,1463.5,406.1z M1315.6,754.6c8.4,10.6,13.3,17.5,11.9,23.8c-4.6,19.8-25.7,30.8-50.1,43.6   c-22,11.5-44.7,23.4-59.6,44c-15.9,21.9-14.9,55.1-9.6,83.5c-10.5-26.9-18.9-61.4-7.1-86.7c14-29.9,38-41.5,57.3-50.9   c16.7-8.1,34-16.5,34.9-35.7c0.9-20.4-17.7-32.1-34.1-42.5c-24.7-15.5-31.9-23.1-26.4-37.4c6.5-16.9,11-18.7,24.3-24.1   c13.2-5.4,31.3-12.7,57.9-36.1c8.5-7.5,21.2-11.3,33.4-15c20.3-6.2,51-15.5,41.4-51.2c-4.7-17.6-15.1-30.9-30.8-39.6   c-15.1-8.3-34.1-11.5-54.7-11.5c-48.2,0-105.1,17.6-140.6,28.6l-11.4,3.5c-76.1,23-128.9,14.2-157.1-26.1   c-8.8-12.5-8.4-19.5-7.9-29.2c0.7-12.7,1.5-28.5-18.6-50.9c-6.5-7.3-15.6-10.5-23.6-13.3c-17.5-6.1-30.2-10.6-13.2-60.1   c4.5-13.1,2.9-27.2,1.4-40.9c-3.6-32.2-7-62.6,60.3-89.8c27.7-11.2,69.4,2.9,106.1,15.3c25.7,8.7,47.8,16.1,64.8,15   c38-2.5,51-15.5,76.8-41.3c10.9-10.9,24.5-24.5,44.1-41.6c12.4-10.8,57.3-17.2,99.3-2.6c26.9,9.4,60.8,30.3,69.3,76.8   c5.6,30.2,3.1,51.5-7.2,63.2c-14,15.9-42.4,14.4-65.3,13.2c-10.9-0.6-20.2-1.1-27.4,0.4c-23.2,4.8-33.4,16.9-42.4,27.5   c-11.7,13.8-23.8,28.2-73.9,33c-12.8,1.1-34.6-6.3-54-12.9c-17-5.8-31.7-10.8-43.2-11.5c-23.9-1.5-118.2,5.2-134.3,41.2   c-3.6,8.2-7.2,19.1-2.5,30.4c5.1,12.2,18.2,21.2,45.2,31.3c82.4,30.6,118.1,24.3,157.4,17.3c8.7-1.5,16.7-3.2,24.5-4.9   c38.4-8.2,71.5-15.4,159,10.9c73.7,22.1,89.7,36.8,85.5,78.4c-2.1,20.9-47.5,41.7-83.9,58.4c-38.1,17.4-74,33.9-88,57   C1288.7,720.6,1304.9,741.1,1315.6,754.6z M1402.6,661.8c49-22.4,95.3-43.6,98.9-79.3c6.8-67.2-38.7-86.2-103.8-105.7   c-93.8-28.1-129.9-20.4-171.8-11.4c-7.5,1.6-15.2,3.3-25.1,5c-35.8,6.3-66.7,11.8-142.4-16.4c-24-8.9-29.4-14.5-30.5-17.1   c-0.7-1.7,0.1-5,2.3-9.9c7-15.7,75.1-28,109.1-25.9c8,0.5,22.4,5.4,36.4,10.2c22.9,7.8,46.6,16,64.8,14.1   c60.5-5.9,77.4-25.9,91.1-42c8.1-9.6,13.5-15.9,28-18.9h0c3.9-0.8,12.5-0.4,20.8,0.1c26.9,1.5,63.8,3.4,86.1-22   c16-18.2,20.3-46,13.2-84.9c-8.4-45.8-39-80-86.2-96.5c-45.7-16-101.7-12.6-124.8,7.5c-20.2,17.6-34.1,31.6-45.4,42.7   c-24.6,24.6-32,32-60.3,33.9c-11.9,1-32.7-6.2-54.8-13.7c-41-13.8-87.5-29.5-124-14.8c-85.5,34.5-80.2,81.9-76.3,116.6   c1.3,11.9,2.5,22.1-0.2,29.7c-23.3,68,2.7,83.6,29,92.8c5.3,1.9,10.9,3.8,12.9,6.1c13,14.5,12.6,21.7,12.1,32.5   c-0.6,11.4-1.3,25.5,12.5,45.3c24.2,34.7,76.2,69.1,185.7,36l11.6-3.6c43.6-13.5,134.4-41.6,175.1-19.1c9.5,5.2,15.5,13,18.4,23.7   c2.5,9.3,2.1,11.8-24,19.8c-14.2,4.3-30.2,9.2-42.9,20.4c-23.4,20.5-38.5,26.7-50.6,31.6c-17.5,7.1-28.7,12.7-38.7,38.7   c-14.1,36.5,16.5,55.8,36.7,68.6c10,6.3,22.3,14.1,22.1,19.5c-0.2,3.8-10.5,8.8-20.4,13.6c-21.8,10.6-51.5,25-69.4,63.2   c-28.2,60.1,26.5,149.2,28.9,153c2.4,3.8,6.5,6.1,10.9,6.1h17.9c4.3,0,8.3-2.1,10.7-5.7c2.4-3.6,2.9-8.1,1.3-12   c-8.3-20.8-27.8-85.9-8.8-112c11.4-15.7,31.4-26.2,50.8-36.3c27.6-14.4,56.1-29.4,63.3-60.7c4.4-18.9-7.4-33.7-16.8-45.7   c-12.3-15.5-15.1-21.3-9.9-29.9C1335.8,692.4,1369.7,676.9,1402.6,661.8z"></path>
	<path style="clip-path:url(#SVGID_00000152984996743668608340000006761531212113256374_);" d="M2212.8,1334.7   c29.4,0,38.7-30.2,38.7-57.4c0-26.7-9.7-58.5-38.7-58.5c-28.7,0-38.7,31.8-38.7,58.5C2174.1,1304.4,2184.2,1334.7,2212.8,1334.7z    M2297.3,1208.7c15.1,0,16.7,5.4,16.7,15.9c0,8.9-1.9,14-9.7,13.2c-7.7-1.2-12-2.3-16.3-2.3c-8.1,0-9.3,5.4-7.4,10.9   c3.9,8.9,7,18.6,7,30.6c0,37.6-28.3,69-74.4,69c-16.3,0-28.7-5.4-41.5-5.4c-10.8,0-15.5,5.4-15.5,11.2c0,9.7,12.8,14,35.6,17.4   l47.3,7.4c43.4,6.2,65.5,19,65.5,51.9c0,36.8-39.5,61.2-89.1,61.2c-51.1,0-85.2-19.8-85.2-55c0-15.9,6.6-29.5,22.1-29.5   c10.5,0,16.3,5,16.3,14c0,10.1-3.9,12.8-3.9,27.9c0,16.7,18.6,32.6,51.5,32.6c39.9,0,58.1-18.2,58.1-46.1   c0-18.2-11.2-23.6-35.6-28.3l-62.4-10.5c-33.7-6.2-45.3-17.8-45.3-34.1c0-16.3,14.7-29.1,40.7-27.1c-19.8-11.2-33.7-32.2-33.7-56.6   c0-37.2,25.6-68.6,74-68.6c31.4,0,48,14,58.5,26C2274.1,1219.2,2281.8,1208.7,2297.3,1208.7L2297.3,1208.7z M2090.4,1207.6   c19.4,0,31,9.3,31,20.9c0,10.9-6.6,18.6-17,18.6c-17.8,0-14.7-17.8-33.3-17.8c-22.5,0-32.9,29.8-36,36.8v115.1   c0,9.7,10.8,12.8,22.5,14.3v10.1c-27.1-1.6-53.5-1.6-80.6,0v-10.1c12.8-1.6,23.2-4.7,23.2-14.3v-131.4c0-13.2-8.1-16.7-23.2-14.7   V1225c29.8-4.7,42.2-17.8,50-17.8c5.4,0,8.5,3.5,8.1,9.7l-5.8,37.2C2042.3,1226.5,2059.8,1207.6,2090.4,1207.6L2090.4,1207.6z    M1922.2,1316.1c0-57.4-20.9-97.3-53.5-97.3c-26,0-41.8,25.2-41.8,81.8c0,57.4,20.9,97.7,53.9,97.7   C1906.7,1398.2,1922.2,1373,1922.2,1316.1L1922.2,1316.1z M1874.2,1208.3c45.3,0,87.6,35.7,87.6,98.4c0,65.1-42.2,102.7-86,102.7   c-45.3,0-87.6-37.6-87.6-99.6C1788.2,1244,1830.4,1208.3,1874.2,1208.3L1874.2,1208.3z M1737.8,1409.4c-11.2,0-20.9-9.7-20.9-21.3   s9.7-21.3,20.9-21.3c11.6,0,21.3,9.7,21.3,21.3S1749.4,1409.4,1737.8,1409.4z M1589,1394.3c25.6,0,41.5-26.7,46.5-39.1V1294   c-71.3,15.9-77.5,46.9-77.5,65.1C1558,1380.4,1569.6,1394.3,1589,1394.3z M1670.8,1368.8c0,13.2,7.7,15.9,22.9,14.3v10.9   c-30.2,7-40.7,16.3-50.4,16.3c-5,0-8.1-2.7-7.7-9.3l1.9-29.5c-9.3,17.1-28.7,38.8-60.4,38.8c-26,0-56.6-12.8-56.6-49.2   c0-33.7,21.3-58.1,115.1-77.9v-11.6c0-36.8-0.4-53.5-21.7-53.5c-60.4,0-31.8,57.7-63.2,57.7c-11.2,0-16.7-7-16.7-16.3   c0-27.9,35.6-51.5,80.2-51.5c45.7,0,56.6,16.3,56.6,63.6L1670.8,1368.8L1670.8,1368.8z M1481.7,1381.2c0,9.7,10.5,12.8,23.2,14.3   v10.1c-27.1-1.2-54.2-1.2-81,0v-10.1c12.4-1.6,22.5-4.7,22.5-14.3v-107c0-30.6-5.8-50.8-27.1-50.8c-28.7,0-50.8,30.2-55,36.8v120.9   c0,9.7,10.5,12.8,22.9,14.3v10.1c-26.7-1.2-53.9-1.2-81,0v-10.1c12.8-1.6,22.9-4.7,22.9-14.3v-201.5c0-12.8-8.1-16.3-23.2-14.7   v-9.7c29.8-5,43-17.4,51.1-17.4c4.6,0,7.4,2.7,7.4,9.3v80.6l-1.9,20.9c6.2-10.5,30.6-40.7,65.9-40.7c32.2,0,53.5,13.6,53.5,66.3   L1481.7,1381.2L1481.7,1381.2z M1283.7,1364.1c2.7,0,5,2.7,3.1,7c-9.7,21.7-27.5,38.4-61.2,38.4c-51.5,0-89.9-39.1-89.9-101.9   c0-60.5,37.6-99.2,85.6-99.2c41.8,0,66.6,24.4,67,48.4c0,8.1-7,17.1-17.8,17.1c-10.1,0-17.8-7-17.4-15.5c0.8-19.8-5-39.5-28.3-39.5   c-31.4,0-50.4,31.8-50.4,85.3c0,60.5,23.2,94.2,53.1,94.2c26,0,39.9-15.5,43.8-30.6c0.4-2.3,1.9-3.5,4.3-3.5H1283.7z    M1101.2,1369.5c0,13.6,7.7,16.3,22.9,14.3v10.1c-30.2,7-40.7,16.3-50.4,16.3c-5.4,0-8.1-4.3-7.4-10.1l3.5-37.6   c-8.1,11.6-31,48.1-65.9,48.1c-31.8,0-55.8-15.1-55.8-68.2v-104.2c0-10.5-3.1-14.3-10.8-14l-11.6,0.4v-10.5l48.8-4.3   c5.4-0.4,8.9,1.6,8.9,7.4v125.6c0,31,7,51.2,29.4,51.2c29.4,0,48.8-36,53.1-44.2v-111.6c0-10.5-2.7-14.3-10.5-14l-12,0.4v-10.5   l48.8-4.3c6.2-0.4,8.9,1.6,8.9,7.4V1369.5z M826.4,1399.8c32.2,0,46.5-26.4,46.5-81c0-54.6-15.1-99.2-49.2-99.2   c-20.9,0-37.2,14.7-46.5,27.1v111.2C778,1373,799.7,1399.8,826.4,1399.8z M829.5,1208.3c43.8,0,81,34.5,81,101.5   c0,64.7-39.9,100-81.8,100c-30.2,0-39.5-19-56.2-19c-8.9,0-15.1,5-18.2,14.7h-6.2c-4.3,0-6.2-2.7-6.2-7v-218.9   c0-12.8-8.1-16.3-23.2-14.7v-9.7c29.8-5,43-17.4,50.8-17.4c5,0,7.7,2.7,7.7,9.3v86.4C787.7,1220.7,806.3,1208.3,829.5,1208.3   L829.5,1208.3z M705.2,1352.1l-12.8,53.5H554.8c-4.3,0-8.1-5.4-5-10.9l110.8-173.2h-62.4c-15.9,0-18.6,7-34.5,39.1h-10.1l14.3-53.1   h8.1c9.7,2.7,15.1,3.9,33.3,3.9c26.3,0,56.6,0,95.7-0.8l-117.4,184.8l65.5,0.4c21.3,0,25.2-8.5,41.1-43.8H705.2L705.2,1352.1z    M494.4,1299c0-50-12.4-80.2-41.5-80.2c-29.8,0-46.9,30.6-47.3,80.2H494.4z M517.6,1364.1c2.7,0,4.3,2.7,2.7,6.6   c-8.9,20.9-29.8,38.8-63.5,38.8c-50.8,0-90.7-35.3-90.7-100.8c0-63.6,41.1-100.4,86.4-100.4c40.7,0,76.7,28.3,76.7,81   c0,12.8-4.6,20.5-17.4,20.5H405.6c0.4,55.4,22.1,88.4,55.8,88.4c19,0,33.7-8.5,43.8-28.3c1.5-3.5,2.7-5.8,6.6-5.8H517.6   L517.6,1364.1z M294.4,1211.4h74v9.7l-9.7,1.9c-8.5,1.6-19.8,5-25.2,20.9l-56.2,161.6h-12.8l-50.4-140.3l-48.8,140.3h-12.8   l-58.5-162.4c-3.9-11.6-8.9-18.2-19.4-20.2l-10.5-1.9v-9.7h83.3v10.1l-10.8,1.6c-9.3,1.2-10.1,9.7-6.6,20.2l39.9,116.6l37.6-112   l-1.5-4.7c-3.9-11.6-8.9-19.4-17.4-20.2l-11.2-1.6v-10.1h81v10.1l-9.7,1.6c-9.3,1.2-10.1,9.7-6.6,20.2l39.9,116.6l39.1-115.9   c4.3-11.2-1.2-19.4-16.3-20.9l-10.5-1.6V1211.4z"></path>
	<path style="clip-path:url(#SVGID_00000152984996743668608340000006761531212113256374_);" d="M2079.9,1556.8h9.1v50.3h-9.1V1556.8   z M1998.4,1607.1c-1.3-1.9-2.7-4-4.4-6.1c-1.6-2.1-3.4-4.2-5.2-6.2c-1.8-2-3.7-3.9-5.6-5.7c-1.9-1.8-3.8-3.3-5.7-4.6v22.6h-9.1   v-50.3h9.1v20.8c1.6-1.6,3.3-3.3,5-5.1c1.7-1.8,3.5-3.7,5.2-5.5c1.7-1.9,3.4-3.7,4.9-5.4c1.5-1.7,3-3.3,4.2-4.7h11   c-1.6,1.8-3.3,3.8-5.1,5.7c-1.8,2-3.6,4-5.5,6c-1.9,2-3.8,4-5.7,6c-1.9,2-3.8,3.9-5.6,5.7c2,1.5,4.1,3.4,6.2,5.4   c2.1,2.1,4.2,4.3,6.2,6.6c2,2.3,4,4.8,5.8,7.3c1.9,2.5,3.6,5.1,5.1,7.6H1998.4z M1868.3,1562.5c0.8,2.6,1.6,5.3,2.5,8.2   c0.9,2.8,1.8,5.7,2.7,8.5c0.9,2.8,1.9,5.6,2.8,8.4c0.9,2.7,1.9,5.3,2.7,7.7c0.7-2.6,1.4-5.5,2.1-8.5c0.7-3.1,1.4-6.3,2-9.6   c0.7-3.3,1.3-6.7,2-10.1c0.7-3.4,1.3-6.8,1.9-10.2h9.4c-1.7,9.1-3.6,17.9-5.7,26.3c-2.1,8.4-4.4,16.4-7,24.1h-8.7   c-3.8-9.8-7.4-20.5-11-32c-1.8,5.9-3.6,11.4-5.4,16.7c-1.8,5.3-3.7,10.4-5.5,15.3h-8.7c-2.6-7.6-4.9-15.7-7-24.1   c-2.1-8.4-3.9-17.2-5.6-26.3h9.8c0.6,3.3,1.2,6.7,1.9,10.1c0.7,3.4,1.3,6.8,2,10.1c0.7,3.3,1.4,6.5,2.1,9.6s1.5,6,2.2,8.6   c0.9-2.5,1.9-5.1,2.8-7.8c0.9-2.7,1.9-5.5,2.8-8.4c0.9-2.8,1.8-5.7,2.7-8.5s1.6-5.5,2.4-8.1H1868.3L1868.3,1562.5z M1761.9,1581.9   c0,4.3-0.6,8.1-1.9,11.4c-1.3,3.3-3,6-5.2,8.2c-2.2,2.2-4.8,3.9-7.7,5c-3,1.1-6.1,1.7-9.4,1.7s-6.5-0.6-9.5-1.7   c-3-1.1-5.6-2.8-7.8-5c-2.2-2.2-4-5-5.3-8.2s-2-7.1-2-11.4s0.7-8.1,2-11.4s3.1-6,5.3-8.2c2.3-2.2,4.9-3.9,7.8-5   c3-1.1,6.1-1.7,9.4-1.7c3.3,0,6.4,0.6,9.4,1.7c3,1.1,5.5,2.8,7.7,5c2.2,2.2,4,5,5.3,8.2C1761.2,1573.8,1761.9,1577.6,1761.9,1581.9   L1761.9,1581.9z M1722.6,1581.9c0,2.8,0.3,5.3,1,7.5c0.7,2.3,1.7,4.2,2.9,5.7s2.8,2.8,4.7,3.7s3.9,1.3,6.2,1.3   c2.3,0,4.3-0.4,6.2-1.3s3.4-2.1,4.7-3.7c1.3-1.6,2.3-3.5,2.9-5.7c0.7-2.3,1-4.8,1-7.5c0-2.8-0.3-5.3-1-7.5   c-0.7-2.3-1.7-4.2-2.9-5.7c-1.3-1.6-2.8-2.8-4.7-3.7c-1.8-0.9-3.9-1.3-6.2-1.3c-2.3,0-4.4,0.4-6.2,1.3c-1.8,0.9-3.4,2.1-4.7,3.7   c-1.3,1.6-2.3,3.5-2.9,5.7C1722.9,1576.7,1722.6,1579.2,1722.6,1581.9L1722.6,1581.9z M1641.6,1563.6c-1.6,1.7-3.5,4-5.8,6.8   c-2.3,2.8-4.6,5.8-7,9.1c-2.4,3.3-4.8,6.6-7.2,10.1c-2.3,3.5-4.4,6.7-6.2,9.8h27v7.8h-38.1v-5.7c1-1.8,2.1-3.7,3.4-5.8   c1.3-2.1,2.7-4.3,4.1-6.5c1.5-2.2,3-4.5,4.5-6.8c1.6-2.3,3.1-4.5,4.7-6.6c1.5-2.1,3.1-4.1,4.5-6c1.5-1.9,2.9-3.6,4.2-5.1h-24.2   v-7.8h36V1563.6z M1512.9,1566.5c-1.1,2.6-2.4,5.7-3.8,9.4c-1.4,3.7-2.9,7.7-4.5,12h16.6c-1.5-4.3-3-8.3-4.5-12.1   S1514,1569,1512.9,1566.5z M1527.8,1607.1c-0.7-2-1.4-3.9-2.1-5.9c-0.7-1.9-1.4-3.9-2.1-6h-21.2c-0.7,2-1.4,4-2.1,6   c-0.7,2-1.4,3.9-2.1,5.8h-9.5c1.9-5.4,3.7-10.3,5.4-14.9c1.7-4.6,3.4-8.9,5-12.9c1.6-4.1,3.2-7.9,4.8-11.6   c1.6-3.7,3.2-7.3,4.9-10.9h8.6c1.7,3.6,3.3,7.2,4.9,10.9c1.6,3.7,3.2,7.6,4.8,11.6c1.6,4.1,3.3,8.4,5,12.9   c1.7,4.6,3.5,9.5,5.4,14.9H1527.8L1527.8,1607.1z M1398.2,1564.2c-1.9,0-3.7,0.1-5.4,0.2v16.3h4c2.2,0,4.2-0.1,5.9-0.4   c1.7-0.2,3.1-0.7,4.2-1.3s2-1.5,2.6-2.5c0.6-1.1,0.9-2.4,0.9-4.1c0-1.5-0.3-2.9-0.9-3.9c-0.6-1.1-1.4-1.9-2.5-2.5   c-1.1-0.6-2.4-1.1-3.9-1.3C1401.7,1564.3,1400,1564.2,1398.2,1564.2L1398.2,1564.2z M1397.6,1556.3c7.3,0,12.8,1.3,16.7,4   s5.8,6.7,5.8,12.2c0,6.8-3.4,11.4-10.1,13.9c0.9,1.1,2,2.5,3.1,4.1c1.2,1.6,2.3,3.3,3.6,5.2c1.2,1.9,2.4,3.8,3.5,5.7   c1.1,2,2.1,3.9,3,5.8h-10.2c-0.9-1.7-1.9-3.5-3-5.3s-2.1-3.5-3.2-5.2c-1.1-1.7-2.2-3.2-3.2-4.7c-1.1-1.5-2.1-2.8-3-4   c-0.7,0-1.3,0.1-1.7,0.1h-1.4h-4.4v19h-9.1v-49.6c2.2-0.5,4.6-0.8,7.1-1C1393.3,1556.4,1395.6,1556.3,1397.6,1556.3L1397.6,1556.3z    M1309.5,1581.9c0,4.3-0.6,8.1-1.9,11.4c-1.3,3.3-3,6-5.2,8.2c-2.2,2.2-4.8,3.9-7.7,5c-3,1.1-6.1,1.7-9.4,1.7   c-3.3,0-6.5-0.6-9.5-1.7c-3-1.1-5.6-2.8-7.8-5c-2.2-2.2-4-5-5.3-8.2c-1.3-3.3-2-7.1-2-11.4s0.7-8.1,2-11.4s3.1-6,5.3-8.2   c2.3-2.2,4.9-3.9,7.8-5c3-1.1,6.1-1.7,9.4-1.7c3.3,0,6.4,0.6,9.4,1.7c3,1.1,5.5,2.8,7.7,5c2.2,2.2,4,5,5.3,8.2   C1308.8,1573.8,1309.5,1577.6,1309.5,1581.9L1309.5,1581.9z M1270.2,1581.9c0,2.8,0.3,5.3,1,7.5c0.7,2.3,1.7,4.2,2.9,5.7   c1.3,1.6,2.8,2.8,4.7,3.7s3.9,1.3,6.2,1.3c2.3,0,4.3-0.4,6.2-1.3c1.8-0.9,3.4-2.1,4.7-3.7s2.3-3.5,2.9-5.7s1-4.8,1-7.5   c0-2.8-0.3-5.3-1-7.5s-1.7-4.2-2.9-5.7c-1.3-1.6-2.8-2.8-4.7-3.7c-1.8-0.9-3.9-1.3-6.2-1.3c-2.3,0-4.4,0.4-6.2,1.3   c-1.8,0.9-3.4,2.1-4.7,3.7c-1.3,1.6-2.3,3.5-2.9,5.7C1270.5,1576.7,1270.2,1579.2,1270.2,1581.9L1270.2,1581.9z M1178.7,1607.1   c-1.6-2.8-3.5-5.7-5.5-8.9c-2-3.2-4.1-6.4-6.3-9.6c-2.2-3.2-4.4-6.3-6.6-9.4c-2.3-3-4.4-5.7-6.4-8.2v36h-9v-50.3h7.5   c1.9,2,4,4.4,6.2,7.2c2.2,2.8,4.5,5.7,6.7,8.7c2.3,3,4.4,6,6.5,9c2.1,3,4,5.8,5.6,8.5v-33.4h9.1v50.3H1178.7z M1070.6,1581.9   c0,4.4-0.7,8.1-2,11.4s-3.3,5.9-5.8,8.1c-2.5,2.2-5.5,3.8-9,4.8c-3.5,1-7.4,1.6-11.7,1.6c-2,0-4.3-0.1-6.9-0.3s-5-0.5-7.3-1.1   v-48.9c2.3-0.5,4.8-0.9,7.4-1c2.6-0.1,4.9-0.2,7-0.2c4.2,0,8.1,0.5,11.5,1.5c3.5,1,6.5,2.5,9,4.6c2.5,2.1,4.4,4.8,5.8,8   C1069.9,1573.6,1070.6,1577.5,1070.6,1581.9L1070.6,1581.9z M1037,1599.6c0.5,0,1.2,0.1,2.1,0.1c0.9,0,2.1,0,3.6,0   c6.1,0,10.7-1.6,13.8-4.7c3-3.1,4.5-7.5,4.5-13.1c0-5.7-1.5-10.1-4.4-13.1c-3-3-7.5-4.6-13.7-4.6c-2.7,0-4.6,0.1-5.8,0.2V1599.6z    M921.1,1607.1v-50.3h32.3v7.8h-23.2v12.4h20.6v7.6h-20.6v14.7h24.9v7.8H921.1L921.1,1607.1z M845.3,1590.6c0,2.5-0.3,4.8-0.8,6.9   c-0.5,2.1-1.5,4-2.8,5.6s-3.1,2.9-5.4,3.8c-2.3,0.9-5.1,1.4-8.5,1.4c-3.2,0-6-0.4-8.3-1.3c-2.3-0.9-4.2-1.9-5.4-2.9l3.3-7.2   c1.2,0.8,2.7,1.6,4.5,2.4c1.8,0.8,3.6,1.1,5.4,1.1c3.1,0,5.3-0.8,6.8-2.3c1.4-1.5,2.1-4.2,2.1-8v-33.2h9.2L845.3,1590.6   L845.3,1590.6z M631.8,1607.1v-50.3h32.3v7.8H641v12.4h20.6v7.6H641v14.7h24.9v7.8H631.8z M537.3,1564.2c-2.3,0-4.2,0.1-5.7,0.2   v17.1h4.4c4.4,0,7.8-0.6,10.2-1.9c2.4-1.2,3.6-3.6,3.6-7c0-1.6-0.3-3-0.9-4.1c-0.6-1.1-1.5-2-2.6-2.6c-1.1-0.6-2.4-1.1-4-1.3   S539,1564.2,537.3,1564.2L537.3,1564.2z M536.6,1556.3c7.3,0,12.9,1.3,16.8,4c3.9,2.7,5.8,6.8,5.8,12.5c0,3-0.5,5.5-1.6,7.6   c-1,2.1-2.6,3.8-4.5,5.2c-2,1.3-4.4,2.3-7.3,2.9c-2.9,0.6-6.1,0.9-9.8,0.9h-4.6v17.7h-9.1v-49.6c2.1-0.5,4.5-0.8,7.1-1   C532.1,1556.4,534.5,1556.3,536.6,1556.3z M427.1,1566.5c-1.1,2.6-2.4,5.7-3.8,9.4c-1.4,3.7-2.9,7.7-4.5,12h16.6   c-1.5-4.3-3-8.3-4.5-12.1C429.5,1572.1,428.2,1569,427.1,1566.5z M442,1607.1c-0.7-2-1.4-3.9-2.1-5.9c-0.7-1.9-1.4-3.9-2.1-6h-21.2   c-0.7,2-1.4,4-2.1,6c-0.7,2-1.4,3.9-2.1,5.8h-9.5c1.9-5.4,3.7-10.3,5.4-14.9c1.7-4.6,3.4-8.9,5-12.9c1.6-4.1,3.2-7.9,4.8-11.6   c1.6-3.7,3.2-7.3,4.9-10.9h8.6c1.7,3.6,3.3,7.2,4.9,10.9c1.6,3.7,3.2,7.6,4.8,11.6c1.6,4.1,3.3,8.4,5,12.9   c1.7,4.6,3.5,9.5,5.4,14.9H442z M309.1,1607.1c-3.6-7.8-7.1-16-10.5-24.6s-6.5-17.1-9.4-25.7h10.1c1.2,3.4,2.3,6.9,3.6,10.4   c1.2,3.5,2.4,7,3.6,10.4c1.2,3.4,2.4,6.7,3.6,9.9c1.2,3.2,2.4,6.1,3.6,8.8c1.1-2.7,2.3-5.6,3.5-8.8c1.2-3.2,2.4-6.5,3.7-9.9   c1.2-3.4,2.5-6.9,3.7-10.5c1.2-3.5,2.4-7,3.5-10.4h9.8c-3,8.6-6.1,17.1-9.4,25.7s-6.8,16.8-10.5,24.6H309.1z"></path>
</g>
</svg>
